<?xml version="1.0" ?><!-- Uploaded to: SVG Repo, www.svgrepo.com, Generator: SVG Repo Mixer Tools -->
<svg fill="#000000" width="800px" height="800px" viewBox="0 0 512 512" id="fill" xmlns="http://www.w3.org/2000/svg"><title/><path d="M398.592,14H115.409A100.522,100.522,0,0,0,15,114.409V397.592A100.522,100.522,0,0,0,115.409,498H398.592A100.522,100.522,0,0,0,499,397.592V114.409A100.522,100.522,0,0,0,398.592,14ZM487,397.592A88.509,88.509,0,0,1,398.592,486H115.409A88.509,88.509,0,0,1,27,397.592V114.409A88.509,88.509,0,0,1,115.409,26H398.592A88.509,88.509,0,0,1,487,114.409Z"/><path d="M402.773,182.731,272.587,122.942v-4.525A35.36,35.36,0,0,0,237.267,83.1h-8.619a35.36,35.36,0,0,0-35.32,35.321v64.531a21.723,21.723,0,0,0,14.946,20.643v34.972a24.684,24.684,0,0,0,49.367,0V203.6a21.732,21.732,0,0,0,14.946-20.648v-4.1L309.9,225.057c.027.032.053.065.08.1a33.611,33.611,0,0,1,7.9,21.628v28.13h-160.9a18.456,18.456,0,1,0,0,36.911H252.3a31.079,31.079,0,0,0-6.655,19.241v30.479a31.079,31.079,0,0,0,6.655,19.241H104.373a21.924,21.924,0,0,0-21.9,21.9v4.323a21.924,21.924,0,0,0,21.9,21.9H423.526a6,6,0,0,0,6-6V224.23A45.635,45.635,0,0,0,402.773,182.731ZM232.958,251.245a12.7,12.7,0,0,1-12.684-12.682V204.716l.006-.011h25.361v33.858A12.7,12.7,0,0,1,232.958,251.245Zm27.629-68.3a9.74,9.74,0,0,1-9.229,9.739c-.178.008-.349.018-.527.018H215.083c-.178,0-.348-.01-.5-.017a9.744,9.744,0,0,1-9.25-9.74V118.417A23.347,23.347,0,0,1,228.648,95.1h8.619a23.348,23.348,0,0,1,23.32,23.321ZM150.523,293.366a6.463,6.463,0,0,1,6.456-6.455h160.9v12.911h-160.9A6.463,6.463,0,0,1,150.523,293.366Zm107.118,68.176V331.063a19.261,19.261,0,0,1,19.24-19.241h41v68.961h-41A19.262,19.262,0,0,1,257.641,361.542ZM417.526,416.9H104.373a9.91,9.91,0,0,1-9.9-9.9v-4.323a9.911,9.911,0,0,1,9.9-9.9H417.526Zm0-36.121H329.883v-134a45.622,45.622,0,0,0-10.68-29.31l-45.948-56.9a6.023,6.023,0,0,0-.668-.694V136.148l125.21,57.5a33.626,33.626,0,0,1,19.729,30.58Z"/><path d="M374,288a38,38,0,1,0,38,38A38.043,38.043,0,0,0,374,288Zm0,64a26,26,0,1,1,26-26A26.029,26.029,0,0,1,374,352Z"/></svg>